<?xml version="1.0" standalone="no"?>
<!DOCTYPE svg PUBLIC "-//W3C//DTD SVG 20010904//EN"
 "http://www.w3.org/TR/2001/REC-SVG-20010904/DTD/svg10.dtd">
<svg version="1.0" xmlns="http://www.w3.org/2000/svg"
 width="512.000000pt" height="512.000000pt" viewBox="0 0 512.000000 512.000000"
 preserveAspectRatio="xMidYMid meet">

<g transform="translate(0.000000,512.000000) scale(0.100000,-0.100000)"
fill="#D2B4FF" stroke="none">
<path d="M1515 4679 c-239 -22 -410 -64 -560 -139 -178 -87 -288 -197 -375
-375 -80 -162 -132 -382 -134 -566 -1 -91 1 -99 36 -171 55 -111 142 -181 263
-212 88 -23 1191 -24 1280 -1 164 43 283 172 314 339 7 36 11 195 11 395 0
438 -11 490 -122 608 -108 113 -174 133 -432 132 -105 -1 -231 -5 -281 -10z"/>
<path d="M3070 4671 c-30 -9 -73 -29 -95 -43 -53 -33 -128 -115 -155 -168 -48
-94 -50 -123 -50 -940 0 -818 2 -846 50 -941 28 -54 111 -142 164 -173 97 -57
98 -57 773 -54 l619 3 75 37 c93 46 158 112 202 206 l32 67 3 385 c4 501 -13
712 -74 930 -32 112 -111 270 -174 347 -204 250 -562 364 -1140 362 -139 0
-186 -4 -230 -18z"/>
<path d="M725 2752 c-120 -42 -205 -117 -258 -230 l-32 -67 -3 -390 c-5 -626
27 -865 148 -1110 87 -178 197 -288 375 -375 208 -103 477 -150 866 -150 178
0 237 10 315 56 53 31 136 119 164 173 48 95 50 123 50 941 0 833 -1 850 -57
951 -38 71 -138 162 -210 191 l-58 23 -625 2 c-573 2 -629 1 -675 -15z"/>
<path d="M3093 1905 c-81 -22 -132 -52 -193 -114 -64 -63 -103 -138 -119 -225
-7 -36 -11 -195 -11 -395 0 -438 11 -490 122 -608 104 -109 177 -133 407 -133
389 0 658 47 866 150 178 87 288 197 375 375 80 162 132 382 134 566 1 91 -1
99 -36 171 -55 111 -142 181 -263 212 -84 22 -1201 23 -1282 1z"/>
</g>
</svg>
